<svg width="84" height="84" viewBox="0 0 84 84" fill="none" xmlns="http://www.w3.org/2000/svg">
<path d="M70.1737 24.229C70.1737 26.1143 69.1612 27.8249 67.5552 28.6977L61.4804 31.9795L56.3135 34.7377L45.5954 40.533C44.4433 41.1614 43.1864 41.4757 41.8947 41.4757C40.6029 41.4757 39.3461 41.1614 38.194 40.533L16.2341 28.6977C14.6282 27.8249 13.6157 26.1143 13.6157 24.229C13.6157 22.3438 14.6282 20.633 16.2341 19.7602L23.1119 16.0595L28.5931 13.092L38.194 7.92505C40.4982 6.66821 43.2912 6.66821 45.5954 7.92505L67.5552 19.7602C69.1612 20.633 70.1737 22.3438 70.1737 24.229Z" fill="#326AFF"/>
<path opacity="0.4" d="M34.5631 44.6533L14.1394 34.424C12.5683 33.621 10.7529 33.7258 9.2517 34.6335C7.75047 35.5412 6.87769 37.1473 6.87769 38.8929V58.1993C6.87769 61.5508 8.72798 64.5533 11.7304 66.0545L32.1541 76.2491C32.8524 76.5982 33.6205 76.7726 34.3886 76.7726C35.2963 76.7726 36.204 76.5283 37.007 76.0047C38.5082 75.0969 39.381 73.4909 39.381 71.7453V52.4389C39.4159 49.1571 37.5656 46.1545 34.5631 44.6533Z" fill="#FEC62A"/>
<path opacity="0.4" d="M76.9118 38.9272V58.2336C76.9118 61.5503 75.0615 64.5527 72.0591 66.0539L51.6353 76.2832C50.9371 76.6323 50.169 76.807 49.4009 76.807C48.4932 76.807 47.5855 76.5627 46.7477 76.039C45.2813 75.1313 44.3735 73.5252 44.3735 71.7796V52.5079C44.3735 49.1564 46.2239 46.1539 49.2264 44.6527L56.7325 40.917L61.9694 38.2986L69.6501 34.4584C71.2212 33.6554 73.0366 33.7252 74.5378 34.6678C76.0041 35.5755 76.9118 37.1816 76.9118 38.9272Z" fill="#326AFF"/>
<path d="M61.4804 31.9792L56.3134 34.7375L23.1118 16.0593L28.5931 13.0918L60.6425 31.1763C60.9916 31.3858 61.2709 31.665 61.4804 31.9792Z" fill="#ADC3FF"/>
<path d="M61.9693 38.2988V46.224C61.9693 47.6554 60.7822 48.8424 59.3508 48.8424C57.9194 48.8424 56.7324 47.6554 56.7324 46.224V40.9172L61.9693 38.2988Z" fill="#ADC3FF"/>
</svg>
