<svg width="84" height="88" viewBox="0 0 84 88" fill="none" xmlns="http://www.w3.org/2000/svg">
<rect x="17" y="68" width="50" height="20" rx="1" fill="#FEC62A"/>
<path opacity="0.4" d="M41.8947 41.8947C51.5355 41.8947 59.3509 34.0793 59.3509 24.4386C59.3509 14.7978 51.5355 6.98242 41.8947 6.98242C32.254 6.98242 24.4386 14.7978 24.4386 24.4386C24.4386 34.0793 32.254 41.8947 41.8947 41.8947Z" fill="#326AFF"/>
<path d="M41.8948 50.623C24.4037 50.623 10.1595 62.3536 10.1595 76.8073C10.1595 77.7848 10.9276 78.5529 11.9052 78.5529H71.8844C72.862 78.5529 73.63 77.7848 73.63 76.8073C73.63 62.3536 59.3858 50.623 41.8948 50.623Z" fill="#326AFF"/>
</svg>
