<svg width="84" height="85" viewBox="0 0 84 85" fill="none" xmlns="http://www.w3.org/2000/svg">
<path d="M79.4254 76.8069C79.4254 78.2383 78.2384 79.4253 76.807 79.4253H6.98243C5.55103 79.4253 4.36401 78.2383 4.36401 76.8069C4.36401 75.3406 5.55103 74.1885 6.98243 74.1885H76.807C78.2384 74.1885 79.4254 75.3406 79.4254 76.8069Z" fill="#FEC62A"/>
<path opacity="0.4" d="M73.3158 34.8426V74.1888H10.2991L10.4736 34.8076C10.4736 32.678 11.4512 30.6533 13.1619 29.3266L37.6005 10.3343C40.1142 8.3443 43.6752 8.3443 46.1889 10.3343L70.6275 29.3266C72.3382 30.6533 73.3158 32.678 73.3158 34.8426Z" fill="#326AFF"/>
<path d="M47.1317 28.8023H36.658C35.2266 28.8023 34.0396 27.6153 34.0396 26.1839C34.0396 24.7524 35.2266 23.5654 36.658 23.5654H47.1317C48.5631 23.5654 49.7501 24.7524 49.7501 26.1839C49.7501 27.6153 48.5631 28.8023 47.1317 28.8023Z" fill="#326AFF"/>
<path d="M54.1139 38.4033H29.6753C26.7776 38.4033 24.4385 40.7424 24.4385 43.6402V76.8068H59.3508V43.6402C59.3508 40.7424 57.0116 38.4033 54.1139 38.4033ZM37.5306 61.9691C37.5306 63.4005 36.3436 64.5875 34.9122 64.5875C33.4808 64.5875 32.2937 63.4005 32.2937 61.9691V56.7323C32.2937 55.3009 33.4808 54.1138 34.9122 54.1138C36.3436 54.1138 37.5306 55.3009 37.5306 56.7323V61.9691Z" fill="#326AFF"/>
<rect x="4.03516" y="74.1934" width="76" height="10" fill="#FEC62A"/>
</svg>
