<svg width="71" height="75" viewBox="0 0 71 75" fill="none" xmlns="http://www.w3.org/2000/svg">
<path d="M15 59H57V65C57 70.5228 52.5228 75 47 75H25C19.4772 75 15 70.5228 15 65V59Z" fill="#F4B504"/>
<path d="M62.3025 34.9679L61.8292 34.3171C61.0009 33.3112 60.0246 32.5125 58.9004 31.9208C57.3917 31.0629 55.6759 30.6191 53.9009 30.6191H17.0696C15.2946 30.6191 13.6083 31.0629 12.07 31.9208C10.9163 32.5421 9.88085 33.4 9.02293 34.465C7.33668 36.6246 6.53793 39.2871 6.80418 41.9496L7.89876 55.765C8.28335 59.9362 8.78626 65.0837 18.1642 65.0837H52.8359C62.2138 65.0837 62.6871 59.9362 63.1013 55.7354L64.1959 41.9791C64.4621 39.4941 63.8113 37.0091 62.3025 34.9679ZM42.5704 51.2979H28.4C27.2463 51.2979 26.3292 50.3512 26.3292 49.2271C26.3292 48.1029 27.2463 47.1562 28.4 47.1562H42.5704C43.7242 47.1562 44.6413 48.1029 44.6413 49.2271C44.6413 50.3808 43.7242 51.2979 42.5704 51.2979Z" fill="#326AFF"/>
<path opacity="0.4" d="M9.99915 33.4591C10.65 32.8674 11.3008 32.3349 12.07 31.9207C13.5787 31.0628 15.2946 30.6191 17.0696 30.6191H53.9304C55.7054 30.6191 57.3917 31.0628 58.93 31.9207C59.6992 32.3349 60.3796 32.8674 61.0008 33.4887V31.9207V29.0512C61.0008 18.4899 57.7762 15.2653 47.215 15.2653H40.1741C38.8725 15.2653 38.8429 15.2357 38.0737 14.2299L34.5237 9.46699C32.8375 7.27783 31.5062 5.91699 27.2758 5.91699H23.785C13.2237 5.91699 9.99915 9.14158 9.99915 19.7028V31.9503V33.4591Z" fill="#326AFF"/>
</svg>
