<svg width="84" height="91" viewBox="0 0 84 91" fill="none" xmlns="http://www.w3.org/2000/svg">
<path opacity="0.4" d="M69.8245 30.9464V65.5794C69.8245 70.886 69.3357 74.6566 68.0789 77.3448C68.0789 77.3797 68.0439 77.4495 68.009 77.4845C67.2409 78.462 66.2286 78.9508 65.0415 78.9508C63.1912 78.9508 60.9569 77.7288 58.5479 75.1453C55.6851 72.073 51.286 72.3174 48.7723 75.669L45.2463 80.3473C43.8498 82.2325 41.9994 83.1751 40.1491 83.1751C38.2987 83.1751 36.4483 82.2325 35.0518 80.3473L31.4909 75.6341C29.0121 72.3174 24.648 72.073 21.7852 75.1104L21.7502 75.1453C17.8051 79.3697 14.3141 79.9981 12.2891 77.4845C12.2542 77.4495 12.2192 77.3797 12.2192 77.3448C10.9624 74.6566 10.4736 70.886 10.4736 65.5794V30.9464C10.4736 25.6397 10.9624 21.8692 12.2192 19.1809C12.2192 19.146 12.2193 19.1111 12.2891 19.0762C14.2791 16.5276 17.8051 17.156 21.7502 21.3804L21.7852 21.4153C24.648 24.4527 29.0121 24.2083 31.4909 20.8916L35.0518 16.1785C36.4483 14.2932 38.2987 13.3506 40.1491 13.3506C41.9994 13.3506 43.8498 14.2932 45.2463 16.1785L48.7723 20.8567C51.286 24.2083 55.6851 24.4527 58.5479 21.3804C60.9569 18.7969 63.1912 17.575 65.0415 17.575C66.2286 17.575 67.2409 18.0987 68.009 19.0762C68.0788 19.1111 68.0789 19.146 68.0789 19.1809C69.3357 21.8692 69.8245 25.6397 69.8245 30.9464Z" fill="#326AFF"/>
<path d="M55.8596 44.772H27.9298C26.4984 44.772 25.3114 43.585 25.3114 42.1536C25.3114 40.7222 26.4984 39.5352 27.9298 39.5352H55.8596C57.291 39.5352 58.4781 40.7222 58.4781 42.1536C58.4781 43.585 57.291 44.772 55.8596 44.772Z" fill="#326AFF"/>
<path d="M48.8772 56.9907H27.9298C26.4984 56.9907 25.3114 55.8037 25.3114 54.3723C25.3114 52.9409 26.4984 51.7539 27.9298 51.7539H48.8772C50.3086 51.7539 51.4956 52.9409 51.4956 54.3723C51.4956 55.8037 50.3086 56.9907 48.8772 56.9907Z" fill="#326AFF"/>
<rect x="17.1404" width="46" height="19" fill="#FEC62A"/>
<rect x="10.1404" y="12" width="60" height="19" fill="#326AFF"/>
</svg>
