<svg width="84" height="84" viewBox="0 0 84 84" fill="none" xmlns="http://www.w3.org/2000/svg">
<path opacity="0.4" d="M59.3508 31.421C59.3508 44.9321 47.6203 55.8596 33.1666 55.8596L29.9198 59.7698L27.9996 62.0741C26.3588 64.0292 23.2166 63.6101 22.1343 61.271L17.4561 50.9718C11.1021 46.503 6.98242 39.4159 6.98242 31.421C6.98242 17.91 18.7129 6.98242 33.1666 6.98242C43.7101 6.98242 52.8223 12.8128 56.907 21.1917C58.4781 24.2989 59.3508 27.7552 59.3508 31.421Z" fill="#326AFF"/>
<path d="M76.8071 44.8968C76.8071 52.8917 72.6874 59.979 66.3334 64.4478L61.6552 74.7467C60.5729 77.0858 57.4308 77.5399 55.7899 75.5499L50.6229 69.3354C42.1741 69.3354 34.6331 65.5998 29.9199 59.7694L33.1667 55.8593C47.6204 55.8593 59.3509 44.9317 59.3509 31.4207C59.3509 27.7549 58.4782 24.2986 56.9071 21.1914C68.3234 23.8098 76.8071 33.4455 76.8071 44.8968Z" fill="#326AFF"/>
<path d="M41.8946 34.0396H24.4385C23.0071 34.0396 21.8201 32.8526 21.8201 31.4212C21.8201 29.9898 23.0071 28.8027 24.4385 28.8027H41.8946C43.326 28.8027 44.5131 29.9898 44.5131 31.4212C44.5131 32.8526 43.326 34.0396 41.8946 34.0396Z" fill="#326AFF"/>
<circle cx="61.6404" cy="23.0967" r="11.5" fill="#FEC62A"/>
</svg>
