<svg width="84" height="84" viewBox="0 0 84 84" fill="none" xmlns="http://www.w3.org/2000/svg">
<path opacity="0.4" d="M31.4211 6.98242C22.2741 6.98242 14.8378 14.4187 14.8378 23.5658C14.8378 32.5382 21.8551 39.8 31.0022 40.1142C31.2815 40.0793 31.5608 40.0793 31.7702 40.1142C31.8401 40.1142 31.875 40.1142 31.9448 40.1142C31.9797 40.1142 31.9797 40.1142 32.0146 40.1142C40.9522 39.8 47.9695 32.5382 48.0044 23.5658C48.0044 14.4187 40.5681 6.98242 31.4211 6.98242Z" fill="#326AFF"/>
<path d="M49.1565 49.4005C39.4159 42.9069 23.5308 42.9069 13.7205 49.4005C9.28663 52.3681 6.84277 56.383 6.84277 60.6772C6.84277 64.9714 9.28663 68.9514 13.6856 71.884C18.5733 75.1658 24.9972 76.8067 31.421 76.8067C37.8449 76.8067 44.2687 75.1658 49.1565 71.884C53.5554 68.9165 55.9993 64.9365 55.9993 60.6074C55.9644 56.3132 53.5554 52.3332 49.1565 49.4005Z" fill="#326AFF"/>
<path opacity="0.4" d="M69.7897 25.6254C70.3482 32.3984 65.5304 38.3335 58.8621 39.1365C58.8272 39.1365 58.8272 39.1365 58.7923 39.1365H58.6875C58.4781 39.1365 58.2686 39.1365 58.094 39.2063C54.7075 39.3809 51.6004 38.2986 49.2612 36.3086C52.8572 33.0966 54.917 28.2787 54.4981 23.0419C54.2537 20.214 53.2761 17.6305 51.8098 15.431C53.1365 14.7677 54.6726 14.3487 56.2437 14.2091C63.0865 13.6156 69.1961 18.7128 69.7897 25.6254Z" fill="#326AFF"/>
<path d="M76.7721 57.9192C76.4928 61.3057 74.3283 64.2383 70.6974 66.2283C67.2061 68.1485 62.8072 69.0562 58.4432 68.9515C60.9568 66.6822 62.4232 63.8543 62.7025 60.8518C63.0516 56.5227 60.9918 52.3681 56.8721 49.0515C54.533 47.2011 51.8098 45.7348 48.8423 44.6525C56.5579 42.4181 66.2635 43.9194 72.2335 48.7372C75.4454 51.3208 77.0863 54.5676 76.7721 57.9192Z" fill="#FEC62A"/>
</svg>
